<?xml version="1.0" encoding="UTF-8" standalone="no"?><!DOCTYPE svg PUBLIC "-//W3C//DTD SVG 1.1//EN" "http://www.w3.org/Graphics/SVG/1.1/DTD/svg11.dtd"><svg width="100%" height="100%" viewBox="0 0 1790 1790" version="1.1" xmlns="http://www.w3.org/2000/svg" xmlns:xlink="http://www.w3.org/1999/xlink" xml:space="preserve" xmlns:serif="http://www.serif.com/" style="fill-rule:evenodd;clip-rule:evenodd;stroke-linejoin:round;stroke-miterlimit:2;"><circle cx="894.737" cy="894.737" r="894.737" style="fill:#fff;"/><g id="ReaderGroup"><g id="RightBookWithFingersGroup"><path d="M1257.131,1076.198c10.105,80.721 118.676,-2.9 120.687,23.263c0.145,1.89 0.012,172.089 0.068,207.647c0.007,4.206 3.443,25.332 -14.761,21.777c-21.62,-4.223 -100.935,-28.001 -228.023,12.989c-143.757,46.367 -232.676,149.866 -238.851,145.802c-2.738,-1.802 -0.825,-248.938 -1.316,-518.548c-0.142,-78.142 -0.587,-79.301 8.895,-89.698c27.981,-30.683 197.217,-216.265 462.578,-247.432c13.987,-1.643 11.173,6.815 11.28,109.572c0.139,134.47 1.04,136.368 -4.869,139.763c-18.956,10.89 -106.933,16.054 -118.573,50.463c-11.227,33.192 20.645,36.587 5.489,51.303c-30.357,29.475 6.146,63.483 5.78,66.256c-0.256,1.942 -3.583,6.21 -6.435,13.463c-1.595,4.057 -0.999,4.088 -1.947,13.379Z" style="fill:#0da5e9;fill-opacity:1;"/><path d="M1131.907,628.97c13.683,-7.221 94.592,-49.921 182.319,-66.42c9.622,-1.81 8.895,2.203 9.096,11.704c0.046,2.157 0.515,24.338 -1.787,26.915c-5.363,6.003 -190.96,22.305 -358.23,182.077c-16.409,15.673 -53.165,65.291 -45.535,42.12c1.926,-5.849 46.952,-62.575 56.01,-72.407c10.835,-11.761 72.186,-78.354 158.127,-123.989Z" style="fill:#0da5e9;fill-opacity:1;"/><path d="M1345.925,970.484c32.131,-9.006 31.925,-8.951 34.702,-9.726c45.405,-12.68 39.955,26.478 33.327,34.618c-5.76,7.074 -6.593,8.097 -110.31,35.718c-3.329,0.887 -38.274,10.193 -38.722,-18.446c-0.385,-24.589 27.334,-26.988 81.004,-42.164Z" style="fill:#ef6c6c;fill-opacity:1;"/><path d="M1297.461,967.19c-37.834,4.181 -35.797,-37.746 -10.715,-44.986c106.773,-30.821 127.204,-38.374 131.631,-9.999c4.135,26.503 -19.969,27.169 -120.916,54.985Z" style="fill:#ef6c6c;fill-opacity:1;"/><path d="M1274.001,1076.154c0.709,-6.819 -0.618,-6.878 2.859,-13.088c4.61,-8.235 6.726,-12.016 113.843,-39.528c14.942,-3.838 28.206,8.252 28.101,22.564c-0.168,22.924 -32.768,26.79 -39.116,28.552c-85.966,23.859 -99.836,30.923 -105.688,1.5Z" style="fill:#ef6c6c;fill-opacity:1;"/></g><g id="LeftBookWithFingersGroup"><path d="M532.343,1076.198c-10.105,80.721 -118.676,-2.9 -120.687,23.263c-0.145,1.89 -0.012,172.089 -0.068,207.647c-0.007,4.206 -3.443,25.332 14.761,21.777c21.62,-4.223 100.935,-28.001 228.023,12.989c143.757,46.367 232.676,149.866 238.851,145.802c2.738,-1.802 0.825,-248.938 1.316,-518.548c0.142,-78.142 0.587,-79.301 -8.895,-89.698c-27.981,-30.683 -197.217,-216.265 -462.578,-247.432c-13.987,-1.643 -11.173,6.815 -11.28,109.572c-0.139,134.47 -1.04,136.368 4.869,139.763c18.956,10.89 106.933,16.054 118.573,50.463c11.227,33.192 -20.645,36.587 -5.489,51.303c30.357,29.475 -6.146,63.483 -5.78,66.256c0.256,1.942 3.583,6.21 6.435,13.463c1.595,4.057 0.999,4.088 1.947,13.379Z" style="fill:#0da5e9;fill-opacity:1;"/><path d="M657.566,628.97c-13.683,-7.221 -94.592,-49.921 -182.319,-66.42c-9.622,-1.81 -8.895,2.203 -9.096,11.704c-0.046,2.157 -0.515,24.338 1.787,26.915c5.363,6.003 190.96,22.305 358.23,182.077c16.409,15.673 53.165,65.291 45.535,42.12c-1.926,-5.849 -46.952,-62.575 -56.01,-72.407c-10.835,-11.761 -72.186,-78.354 -158.127,-123.989Z" style="fill:#0da5e9;fill-opacity:1;"/><path d="M443.549,970.484c-32.131,-9.006 -31.925,-8.951 -34.702,-9.726c-45.405,-12.68 -39.955,26.478 -33.327,34.618c5.76,7.074 6.593,8.097 110.31,35.718c3.329,0.887 38.274,10.193 38.722,-18.446c0.385,-24.589 -27.334,-26.988 -81.004,-42.164Z" style="fill:#ef6c6c;fill-opacity:1;"/><path d="M492.013,967.19c37.834,4.181 35.797,-37.746 10.715,-44.986c-106.773,-30.821 -127.204,-38.374 -131.631,-9.999c-4.135,26.503 19.969,27.169 120.916,54.985Z" style="fill:#ef6c6c;fill-opacity:1;"/><path d="M515.473,1076.154c-0.709,-6.819 0.618,-6.878 -2.859,-13.088c-4.61,-8.235 -6.726,-12.016 -113.843,-39.528c-14.942,-3.838 -28.206,8.252 -28.101,22.564c0.168,22.924 32.768,26.79 39.116,28.552c85.966,23.859 99.836,30.923 105.688,1.5Z" style="fill:#ef6c6c;fill-opacity:1;"/></g><ellipse id="Head" cx="886.477" cy="463.657" rx="174.658" ry="169.073" style="fill:#ef6c6c;fill-opacity:1;"/></g><g id="LibraryTextGroup"></g><g id="ManiTextGroup"></g><g id="_24-7TextGroup" serif:id="24/7TextGroup"></g></svg>