<?xml version="1.0" encoding="UTF-8" standalone="no"?><!DOCTYPE svg PUBLIC "-//W3C//DTD SVG 1.1//EN" "http://www.w3.org/Graphics/SVG/1.1/DTD/svg11.dtd"><svg width="100%" height="100%" viewBox="0 0 2000 587" version="1.1" xmlns="http://www.w3.org/2000/svg" xmlns:xlink="http://www.w3.org/1999/xlink" xml:space="preserve" xmlns:serif="http://www.serif.com/" style="fill-rule:evenodd;clip-rule:evenodd;stroke-linecap:round;stroke-linejoin:round;stroke-miterlimit:1.5;"><rect x="0" y="0" width="2000" height="586.468" style="fill:none;"/><g id="ReaderGroup"><g id="RightBookWithFingersGroup"><path d="M539.944,387.676c4.975,39.745 58.433,-1.428 59.423,11.454c0.072,0.931 0.006,84.731 0.034,102.239c0.003,2.071 1.695,12.473 -7.268,10.722c-10.645,-2.079 -49.697,-13.787 -112.271,6.396c-70.782,22.83 -114.563,73.79 -117.603,71.788c-1.348,-0.887 -0.406,-122.569 -0.648,-255.317c-0.07,-38.475 -0.289,-39.045 4.379,-44.164c13.777,-15.107 97.104,-106.482 227.759,-121.828c6.887,-0.809 5.501,3.356 5.554,53.95c0.069,66.209 0.512,67.144 -2.397,68.815c-9.334,5.362 -52.651,7.904 -58.382,24.847c-5.528,16.343 10.165,18.014 2.703,25.26c-14.947,14.512 3.026,31.257 2.846,32.622c-0.126,0.956 -1.764,3.057 -3.169,6.629c-0.785,1.997 -0.492,2.013 -0.959,6.588Z" style="fill:#0da5e9;fill-opacity:1;"/><path d="M478.288,167.475c6.737,-3.555 46.574,-24.58 89.768,-32.703c4.738,-0.891 4.38,1.085 4.479,5.763c0.022,1.062 0.254,11.983 -0.88,13.252c-2.641,2.956 -94.023,10.982 -176.382,89.649c-8.079,7.717 -26.177,32.147 -22.42,20.739c0.948,-2.88 23.118,-30.81 27.578,-35.651c5.335,-5.791 35.542,-38.579 77.857,-61.048Z" style="fill:#0da5e9;fill-opacity:1;"/><path d="M583.664,335.626c15.82,-4.434 15.719,-4.407 17.086,-4.789c22.356,-6.243 19.673,13.037 16.409,17.045c-2.836,3.483 -3.246,3.987 -54.313,17.587c-1.639,0.436 -18.845,5.019 -19.066,-9.082c-0.19,-12.107 13.458,-13.288 39.884,-20.76Z" style="fill:#ef6d6d;fill-opacity:1;"/><path d="M559.802,334.004c-18.628,2.059 -17.625,-18.585 -5.276,-22.15c52.572,-15.175 62.632,-18.894 64.811,-4.923c2.036,13.049 -9.832,13.377 -59.536,27.073Z" style="fill:#ef6d6d;fill-opacity:1;"/><path d="M548.251,387.655c0.349,-3.357 -0.304,-3.386 1.408,-6.444c2.27,-4.055 3.312,-5.916 56.053,-19.462c7.357,-1.89 13.888,4.063 13.836,11.11c-0.083,11.287 -16.134,13.191 -19.259,14.058c-42.327,11.747 -49.156,15.226 -52.037,0.739Z" style="fill:#ef6d6d;fill-opacity:1;"/></g><g id="LeftBookWithFingersGroup"><path d="M183.081,387.676c-4.975,39.745 -58.433,-1.428 -59.423,11.454c-0.072,0.931 -0.006,84.731 -0.034,102.239c-0.003,2.071 -1.695,12.473 7.268,10.722c10.645,-2.079 49.697,-13.787 112.271,6.396c70.782,22.83 114.563,73.79 117.603,71.788c1.348,-0.887 0.406,-122.569 0.648,-255.317c0.07,-38.475 0.289,-39.045 -4.379,-44.164c-13.777,-15.107 -97.104,-106.482 -227.759,-121.828c-6.887,-0.809 -5.501,3.356 -5.554,53.95c-0.069,66.209 -0.512,67.144 2.397,68.815c9.334,5.362 52.651,7.904 58.382,24.847c5.528,16.343 -10.165,18.014 -2.703,25.26c14.947,14.512 -3.026,31.257 -2.846,32.622c0.126,0.956 1.764,3.057 3.169,6.629c0.785,1.997 0.492,2.013 0.959,6.588Z" style="fill:#0da5e9;fill-opacity:1;"/><path d="M244.737,167.475c-6.737,-3.555 -46.574,-24.58 -89.768,-32.703c-4.738,-0.891 -4.38,1.085 -4.479,5.763c-0.022,1.062 -0.254,11.983 0.88,13.252c2.641,2.956 94.023,10.982 176.382,89.649c8.079,7.717 26.177,32.147 22.42,20.739c-0.948,-2.88 -23.118,-30.81 -27.578,-35.651c-5.335,-5.791 -35.542,-38.579 -77.857,-61.048Z" style="fill:#0da5e9;fill-opacity:1;"/><path d="M139.361,335.626c-15.82,-4.434 -15.719,-4.407 -17.086,-4.789c-22.356,-6.243 -19.673,13.037 -16.409,17.045c2.836,3.483 3.246,3.987 54.313,17.587c1.639,0.436 18.845,5.019 19.066,-9.082c0.19,-12.107 -13.458,-13.288 -39.884,-20.76Z" style="fill:#ef6d6d;fill-opacity:1;"/><path d="M163.224,334.004c18.628,2.059 17.625,-18.585 5.276,-22.15c-52.572,-15.175 -62.632,-18.894 -64.811,-4.923c-2.036,13.049 9.832,13.377 59.536,27.073Z" style="fill:#ef6d6d;fill-opacity:1;"/><path d="M174.774,387.655c-0.349,-3.357 0.304,-3.386 -1.408,-6.444c-2.27,-4.055 -3.312,-5.916 -56.053,-19.462c-7.357,-1.89 -13.888,4.063 -13.836,11.11c0.083,11.287 16.134,13.191 19.259,14.058c42.327,11.747 49.156,15.226 52.037,0.739Z" style="fill:#ef6d6d;fill-opacity:1;"/></g><ellipse id="Head" cx="357.446" cy="86.08" rx="85.996" ry="83.246" style="fill:#ef6c6c;fill-opacity:1;"/></g><g id="LibraryTextGroup"><path d="M681.449,539.908l0,-220.659l12.877,0l0,208.071l103.294,0l0,12.588l-116.171,0Z" style="fill:#16a6e9;fill-rule:nonzero;"/><rect x="859.624" y="319.248" width="12.739" height="220.659" style="fill:#16a6e9;fill-rule:nonzero;"/><path d="M948.629,539.908l0,-220.659l67.57,0c12.739,0 23.747,2.32 33.024,6.96c9.277,4.64 16.454,11.206 21.531,19.696c5.077,8.491 7.616,18.561 7.616,30.211c0,8.688 -1.523,16.438 -4.569,23.251c-3.046,6.812 -7.177,12.539 -12.393,17.179c-5.215,4.64 -11.146,8.046 -17.793,10.218l0,0.444c7.385,1.086 14.331,3.9 20.839,8.441c6.508,4.542 11.793,10.589 15.854,18.141c4.062,7.553 6.092,16.512 6.092,26.879c0,11.749 -2.515,22.091 -7.546,31.026c-5.031,8.935 -12.393,15.871 -22.085,20.807c-9.692,4.936 -21.508,7.405 -35.447,7.405l-72.694,0Zm12.739,-12.588l59.816,0c16.616,0 29.539,-4.221 38.77,-12.662c9.231,-8.441 13.846,-19.672 13.846,-33.691c0,-9.675 -2.308,-18.018 -6.923,-25.028c-4.615,-7.01 -10.869,-12.415 -18.762,-16.216c-7.892,-3.801 -16.685,-5.702 -26.377,-5.702l-60.37,0l0,93.299Zm0,-105.739l59.678,0c9.046,0 16.916,-1.999 23.608,-5.998c6.692,-3.999 11.885,-9.404 15.577,-16.216c3.692,-6.812 5.539,-14.414 5.539,-22.806c0,-14.02 -4.477,-24.978 -13.431,-32.877c-8.954,-7.898 -20.908,-11.847 -35.862,-11.847l-55.109,0l0,89.745Z" style="fill:#16a6e9;fill-rule:nonzero;"/><path d="M1153.251,539.908l0,-220.659l68.955,0c12.554,0 23.539,2.666 32.954,7.997c9.416,5.331 16.731,12.835 21.947,22.51c5.215,9.675 7.823,20.98 7.823,33.913c0,12.835 -2.654,24.065 -7.962,33.691c-5.308,9.626 -12.693,17.105 -22.154,22.436c-9.462,5.331 -20.47,7.997 -33.024,7.997l-61.616,0l0,-12.588l61.893,0c10.154,0 18.993,-2.123 26.516,-6.368c7.523,-4.245 13.362,-10.243 17.516,-17.993c4.154,-7.75 6.231,-16.809 6.231,-27.175c0,-10.564 -2.077,-19.696 -6.231,-27.397c-4.154,-7.701 -10.016,-13.699 -17.585,-17.993c-7.569,-4.295 -16.431,-6.442 -26.585,-6.442l-55.939,0l0,208.071l-12.739,0Zm120.74,0l-49.847,-99.963l14.4,0l50.124,99.963l-14.677,0Z" style="fill:#16a6e9;fill-rule:nonzero;"/><path d="M1332.534,539.908l76.709,-220.659l15.369,0l76.709,220.659l-13.431,0l-54.416,-158.164c-2.769,-8.096 -5.654,-16.685 -8.654,-25.768c-3,-9.083 -6.3,-19.351 -9.9,-30.803l3.877,0c-3.508,11.453 -6.762,21.72 -9.762,30.803c-3,9.083 -5.931,17.672 -8.792,25.768l-54.278,158.164l-13.431,0Zm33.37,-69.16l0,-12.588l102.048,0l0,12.588l-102.048,0Z" style="fill:#16a6e9;fill-rule:nonzero;"/><path d="M1557.648,539.908l0,-220.659l68.955,0c12.554,0 23.539,2.666 32.954,7.997c9.416,5.331 16.731,12.835 21.947,22.51c5.215,9.675 7.823,20.98 7.823,33.913c0,12.835 -2.654,24.065 -7.962,33.691c-5.308,9.626 -12.693,17.105 -22.154,22.436c-9.462,5.331 -20.47,7.997 -33.024,7.997l-61.616,0l0,-12.588l61.893,0c10.154,0 18.993,-2.123 26.516,-6.368c7.523,-4.245 13.362,-10.243 17.516,-17.993c4.154,-7.75 6.231,-16.809 6.231,-27.175c0,-10.564 -2.077,-19.696 -6.231,-27.397c-4.154,-7.701 -10.016,-13.699 -17.585,-17.993c-7.569,-4.295 -16.431,-6.442 -26.585,-6.442l-55.939,0l0,208.071l-12.739,0Zm120.74,0l-49.847,-99.963l14.4,0l50.124,99.963l-14.677,0Z" style="fill:#16a6e9;fill-rule:nonzero;"/><path d="M1806.579,539.908l0,-99.963l-77.817,-120.696l14.954,0l47.078,73.01c4.246,6.615 8.4,13.205 12.462,19.77c4.062,6.565 8.169,13.304 12.323,20.215l-5.262,0c4.062,-6.911 8.146,-13.649 12.254,-20.215c4.108,-6.565 8.239,-13.156 12.393,-19.77l46.939,-73.01l14.816,0l-77.54,120.696l0,99.963l-12.6,0Z" style="fill:#16a6e9;fill-rule:nonzero;"/></g><g id="ManiTextGroup"><path d="M677.157,255.288l0,-220.659l44.032,0l45.97,128.693c1.292,3.653 2.792,8.195 4.5,13.625c1.708,5.43 3.485,11.156 5.331,17.179c1.846,6.022 3.577,11.798 5.192,17.327c1.615,5.529 2.931,10.169 3.946,13.921l-7.2,0c1.015,-3.752 2.331,-8.367 3.946,-13.847c1.615,-5.479 3.323,-11.23 5.123,-17.253c1.8,-6.022 3.554,-11.773 5.262,-17.253c1.708,-5.479 3.162,-10.046 4.362,-13.699l45.278,-128.693l44.17,0l0,220.659l-30.462,0l0,-119.956c0,-4.739 0.046,-10.095 0.138,-16.068c0.092,-5.973 0.208,-12.242 0.346,-18.808c0.138,-6.565 0.3,-13.18 0.485,-19.845c0.185,-6.664 0.277,-13.106 0.277,-19.326l3.739,0c-2.215,7.207 -4.431,14.414 -6.646,21.622c-2.215,7.207 -4.339,14.094 -6.369,20.659c-2.031,6.565 -3.923,12.563 -5.677,17.993c-1.754,5.43 -3.323,10.021 -4.708,13.773l-43.201,119.956l-25.616,0l-43.616,-119.956c-1.385,-3.752 -2.954,-8.318 -4.708,-13.699c-1.754,-5.381 -3.692,-11.354 -5.815,-17.919c-2.123,-6.565 -4.315,-13.452 -6.577,-20.659c-2.262,-7.207 -4.592,-14.464 -6.992,-21.77l4.708,0c0.092,6.121 0.208,12.489 0.346,19.104c0.138,6.615 0.277,13.205 0.415,19.77c0.138,6.565 0.254,12.859 0.346,18.882c0.092,6.022 0.138,11.453 0.138,16.29l0,119.956l-30.462,0Z" style="fill:#16a6e9;fill-rule:nonzero;"/><path d="M979.1,255.288l74.632,-220.659l37.385,0l74.494,220.659l-33.647,0l-39.739,-124.102c-3.231,-10.367 -6.715,-21.943 -10.454,-34.728c-3.739,-12.785 -8.239,-28.508 -13.5,-47.168l8.169,0c-5.169,18.759 -9.623,34.53 -13.362,47.316c-3.739,12.785 -7.223,24.312 -10.454,34.58l-40.431,124.102l-33.093,0Zm41.124,-57.46l0,-27.99l104.263,0l0,27.99l-104.263,0Z" style="fill:#16a6e9;fill-rule:nonzero;"/><path d="M1257.504,255.288l0,-220.659l34.616,0l78.509,132.988c2.031,3.357 4.546,7.775 7.546,13.254c3,5.479 6.185,11.453 9.554,17.919c3.369,6.467 6.623,12.958 9.762,19.474l-3.323,5.776c-0.369,-6.319 -0.692,-13.328 -0.969,-21.029c-0.277,-7.701 -0.462,-15.031 -0.554,-21.992c-0.092,-6.96 -0.138,-12.415 -0.138,-16.364l0,-130.026l31.016,0l0,220.659l-34.754,0l-70.34,-118.771c-2.492,-4.344 -5.515,-9.675 -9.069,-15.994c-3.554,-6.319 -7.616,-13.699 -12.185,-22.14c-4.569,-8.441 -9.623,-17.796 -15.162,-28.064l4.569,-5.035c0.554,11.156 0.969,21.35 1.246,30.581c0.277,9.231 0.485,17.278 0.623,24.139c0.138,6.862 0.208,12.267 0.208,16.216l0,119.067l-31.154,0Z" style="fill:#16a6e9;fill-rule:nonzero;"/><rect x="1531.755" y="34.628" width="31.016" height="220.659" style="fill:#16a6e9;fill-rule:nonzero;"/></g><g id="_24-7TextGroup" serif:id="24/7TextGroup"><path d="M1667.351,173.85l0,-9.732l22.933,-20.458c1.858,-1.73 3.498,-3.338 4.92,-4.823c1.422,-1.485 2.534,-3.02 3.336,-4.606c0.802,-1.586 1.204,-3.345 1.204,-5.277c0,-2.018 -0.415,-3.77 -1.246,-5.255c-0.831,-1.485 -1.992,-2.631 -3.484,-3.438c-1.492,-0.807 -3.266,-1.211 -5.321,-1.211c-2.168,0 -4.047,0.476 -5.638,1.427c-1.591,0.952 -2.816,2.321 -3.674,4.109c-0.859,1.788 -1.288,3.936 -1.288,6.444l-12.036,0c0,-4.585 0.936,-8.571 2.809,-11.959c1.872,-3.388 4.505,-6.012 7.898,-7.872c3.393,-1.86 7.384,-2.79 11.973,-2.79c4.336,0 8.179,0.822 11.53,2.465c3.351,1.644 5.969,3.95 7.855,6.92c1.886,2.97 2.83,6.444 2.83,10.424c0,2.883 -0.528,5.551 -1.584,8.001c-1.056,2.451 -2.654,4.895 -4.793,7.331c-2.14,2.436 -4.829,5.111 -8.067,8.023l-12.459,11.375l0,0.173l27.283,0l0,10.726l-44.978,0Z" style="fill:#ef6d6d;fill-rule:nonzero;"/><path d="M1726.131,160.485l0,-10.294l27.409,-40.786l8.235,0l0,13.105l-4.646,0l-18.371,27.421l0,0.173l38.855,0l0,10.38l-51.482,0Zm31.084,13.365l0,-16.479l0.084,-4.628l0,-43.338l12.205,0l0,64.444l-12.29,0Z" style="fill:#ef6d6d;fill-rule:nonzero;"/><path d="M1820.641,106.378l-20.272,77.16l-10.896,0l20.272,-77.16l10.896,0Z" style="fill:#ef6d6d;fill-rule:nonzero;"/><path d="M1846.487,173.85l26.311,-53.242l0,-0.173l-30.661,0l0,-11.029l43.838,0l0,10.986l-26.311,53.458l-13.177,0Z" style="fill:#ef6d6d;fill-rule:nonzero;"/></g><path d="M1642.1,199.926l0,0l0,-120l0,0l0,120Z" style="fill:none;stroke:#ef6d6d;stroke-width:8.33px;"/></svg>